<?xml version="1.0" encoding="UTF-8" standalone="no"?>
<!-- Created with Inkscape (http://www.inkscape.org/) -->

<svg
   version="1.1"
   id="svg2"
   xml:space="preserve"
   width="317.32227"
   height="58.666664"
   viewBox="0 0 317.32227 58.666664"
   sodipodi:docname="whitestack.svg"
   inkscape:version="1.1 (ce6663b3b7, 2021-05-25)"
   xmlns:inkscape="http://www.inkscape.org/namespaces/inkscape"
   xmlns:sodipodi="http://sodipodi.sourceforge.net/DTD/sodipodi-0.dtd"
   xmlns="http://www.w3.org/2000/svg"
   xmlns:svg="http://www.w3.org/2000/svg"><sodipodi:namedview
     id="namedview36"
     pagecolor="#ffffff"
     bordercolor="#666666"
     borderopacity="1.0"
     inkscape:pageshadow="2"
     inkscape:pageopacity="0.0"
     inkscape:pagecheckerboard="0"
     showgrid="false"
     inkscape:zoom="0.88392855"
     inkscape:cx="157.25253"
     inkscape:cy="29.414142"
     inkscape:window-width="1405"
     inkscape:window-height="855"
     inkscape:window-x="0"
     inkscape:window-y="0"
     inkscape:window-maximized="0"
     inkscape:current-layer="svg2" /><defs
     id="defs6"><clipPath
       clipPathUnits="userSpaceOnUse"
       id="clipPath16"><path
         d="M 0,560 H 960 V 0 H 0 Z"
         id="path14" /></clipPath></defs><g
     id="g8"
     transform="matrix(1.3333333,0,0,-1.3333333,-483.52252,402.66666)"><g
       id="g10"><g
         id="g12"
         clip-path="url(#clipPath16)"><g
           id="g18"
           transform="translate(416.4094,287.7423)"><path
             d="m 0,0 2.768,-10.638 c 0.605,-2.335 1.167,-4.497 1.556,-6.659 h 0.13 c 0.476,2.118 1.168,4.367 1.859,6.615 L 9.729,0 h 3.201 l 3.243,-10.465 c 0.778,-2.508 1.384,-4.714 1.859,-6.832 h 0.13 c 0.346,2.118 0.908,4.324 1.6,6.789 L 22.746,0 h 3.762 l -6.746,-20.93 h -3.459 l -3.2,9.99 c -0.735,2.335 -1.341,4.411 -1.86,6.876 h -0.086 c -0.519,-2.508 -1.168,-4.67 -1.903,-6.92 L 5.881,-20.93 H 2.421 L -3.892,0 Z"
             style="fill:#002263;fill-opacity:1;fill-rule:nonzero;stroke:none"
             id="path20" /></g><g
           id="g22"
           transform="translate(445.0203,297.5153)"><path
             d="m 0,0 h 3.806 v -13.059 h 0.086 c 0.606,1.081 1.557,2.032 2.724,2.681 1.125,0.648 2.465,1.081 3.892,1.081 2.811,0 7.308,-1.73 7.308,-8.952 v -12.454 h -3.805 v 12.022 c 0,3.373 -1.254,6.226 -4.844,6.226 -2.464,0 -4.41,-1.728 -5.102,-3.804 -0.216,-0.52 -0.259,-1.081 -0.259,-1.817 V -30.703 H 0 Z"
             style="fill:#002263;fill-opacity:1;fill-rule:nonzero;stroke:none"
             id="path24" /></g><path
           d="m 467.045,287.742 h 3.806 v -20.93 h -3.806 z m 4.238,5.882 c 0.043,-1.298 -0.908,-2.336 -2.421,-2.336 -1.341,0 -2.292,1.038 -2.292,2.336 0,1.34 0.994,2.378 2.378,2.378 1.427,0 2.335,-1.038 2.335,-2.378"
           style="fill:#002263;fill-opacity:1;fill-rule:nonzero;stroke:none"
           id="path26" /><g
           id="g28"
           transform="translate(479.8845,293.7531)"><path
             d="M 0,0 V -6.011 H 5.449 V -8.907 H 0 v -11.287 c 0,-2.595 0.735,-4.066 2.854,-4.066 0.995,0 1.729,0.13 2.206,0.26 l 0.172,-2.854 c -0.735,-0.302 -1.902,-0.519 -3.373,-0.519 -1.773,0 -3.2,0.562 -4.108,1.601 -1.081,1.124 -1.47,2.983 -1.47,5.448 v 11.417 h -3.243 v 2.896 h 3.243 v 5.017 z"
             style="fill:#002263;fill-opacity:1;fill-rule:nonzero;stroke:none"
             id="path30" /></g><g
           id="g32"
           transform="translate(500.6672,279.3107)"><path
             d="m 0,0 c 0.043,2.421 -0.995,6.184 -5.276,6.184 -3.849,0 -5.535,-3.547 -5.838,-6.184 z m -11.157,-2.725 c 0.087,-5.146 3.373,-7.265 7.178,-7.265 2.725,0 4.368,0.475 5.795,1.081 l 0.649,-2.724 c -1.341,-0.605 -3.632,-1.298 -6.963,-1.298 -6.443,0 -10.292,4.239 -10.292,10.552 0,6.314 3.72,11.286 9.817,11.286 6.832,0 8.649,-6.011 8.649,-9.859 0,-0.778 -0.087,-1.384 -0.13,-1.773 z"
             style="fill:#002263;fill-opacity:1;fill-rule:nonzero;stroke:none"
             id="path34" /></g><g
           id="g36"
           transform="translate(508.0208,272.5636)"><path
             d="m 0,0 c 1.21,-0.734 3.719,-1.557 5.665,-1.557 1.989,0 2.811,0.65 2.811,1.731 0,1.081 -0.649,1.642 -3.071,2.421 -4.41,1.47 -6.097,3.849 -6.054,6.314 0,3.978 3.373,6.962 8.606,6.962 2.464,0 4.626,-0.606 5.924,-1.255 l -1.124,-4.497 c -0.952,0.476 -2.811,1.168 -4.584,1.168 -1.6,0 -2.508,-0.649 -2.508,-1.686 0,-0.995 0.821,-1.557 3.416,-2.422 4.022,-1.384 5.666,-3.416 5.709,-6.487 0,-3.978 -3.071,-6.876 -9.125,-6.876 -2.768,0 -5.233,0.649 -6.832,1.514 z"
             style="fill:#002263;fill-opacity:1;fill-rule:nonzero;stroke:none"
             id="path38" /></g><g
           id="g40"
           transform="translate(532.6267,293.7101)"><path
             d="m 0,0 v -5.751 h 4.713 v -4.844 H 0 v -7.654 c 0,-2.551 0.648,-3.719 2.594,-3.719 0.908,0 1.341,0.043 1.946,0.173 l 0.044,-4.973 C 3.762,-27.07 2.162,-27.33 0.346,-27.33 c -2.119,0 -3.893,0.735 -4.973,1.816 -1.211,1.254 -1.816,3.286 -1.816,6.271 v 8.648 h -2.811 v 4.844 h 2.811 v 3.978 z"
             style="fill:#002263;fill-opacity:1;fill-rule:nonzero;stroke:none"
             id="path42" /></g><g
           id="g44"
           transform="translate(551.0574,276.8019)"><path
             d="m 0,0 c -3.46,0 -6.141,-0.821 -6.141,-3.329 0,-1.688 1.124,-2.509 2.595,-2.509 1.6,0 2.984,1.081 3.416,2.422 C -0.044,-3.07 0,-2.681 0,-2.292 Z m 6.356,-4.887 c 0,-1.989 0.087,-3.934 0.346,-5.102 H 0.778 L 0.389,-7.87 h -0.13 c -1.384,-1.687 -3.546,-2.595 -6.054,-2.595 -4.281,0 -6.832,3.113 -6.832,6.486 0,5.493 4.93,8.087 12.41,8.087 v 0.26 c 0,1.123 -0.605,2.724 -3.848,2.724 -2.163,0 -4.455,-0.736 -5.838,-1.557 l -1.211,4.194 c 1.47,0.823 4.368,1.903 8.217,1.903 7.048,0 9.253,-4.151 9.253,-9.123 z"
             style="fill:#002263;fill-opacity:1;fill-rule:nonzero;stroke:none"
             id="path46" /></g><g
           id="g48"
           transform="translate(576.8396,267.3751)"><path
             d="m 0,0 c -1.167,-0.562 -3.373,-0.995 -5.881,-0.995 -6.832,0 -11.2,4.194 -11.2,10.811 0,6.141 4.238,11.2 12.108,11.2 1.73,0 3.633,-0.303 5.017,-0.822 l -1.038,-4.886 c -0.778,0.346 -1.946,0.649 -3.676,0.649 -3.459,0 -5.708,-2.465 -5.665,-5.882 0,-3.891 2.595,-5.924 5.795,-5.924 1.557,0 2.768,0.259 3.762,0.692 z"
             style="fill:#002263;fill-opacity:1;fill-rule:nonzero;stroke:none"
             id="path50" /></g><g
           id="g52"
           transform="translate(585.7576,279.0509)"><path
             d="M 0,0 H 0.086 C 0.562,0.908 1.081,1.772 1.6,2.551 l 4.281,6.357 h 7.914 L 6.227,0.346 14.876,-12.238 H 6.789 L 1.644,-3.547 0,-5.622 v -6.616 H -6.573 V 18.508 H 0 Z"
             style="fill:#002263;fill-opacity:1;fill-rule:nonzero;stroke:none"
             id="path54" /></g><g
           id="g56"
           transform="translate(371.8669,258)"><path
             d="m 0,0 h 25.551 c 5.073,0 9.224,4.151 9.224,9.225 v 25.55 C 34.775,39.849 30.624,44 25.551,44 H 0 c -5.073,0 -9.225,-4.151 -9.225,-9.225 V 9.225 C -9.225,4.151 -5.073,0 0,0"
             style="fill:#002263;fill-opacity:1;fill-rule:nonzero;stroke:none"
             id="path58" /></g><g
           id="g60"
           transform="translate(372.1371,264.5097)"><path
             d="m 0,0 h 25.011 c 1.592,0 2.894,1.303 2.894,2.895 0,1.592 -1.302,2.894 -2.894,2.894 H 0 C -1.592,5.789 -2.895,4.487 -2.895,2.895 -2.895,1.303 -1.592,0 0,0"
             style="fill:#ffffff;fill-opacity:1;fill-rule:nonzero;stroke:none"
             id="path62" /></g><g
           id="g64"
           transform="translate(371.9718,275.3788)"><path
             d="m 0,0 24.809,-3.165 c 1.58,-0.202 3.037,0.925 3.238,2.505 v 0 c 0.202,1.579 -0.926,3.036 -2.505,3.238 L 0.733,5.743 C -0.847,5.944 -2.304,4.817 -2.505,3.238 v 0 C -2.707,1.659 -1.579,0.201 0,0"
             style="fill:#ffffff;fill-opacity:1;fill-rule:nonzero;stroke:none"
             id="path66" /></g><g
           id="g68"
           transform="translate(372.9977,290.0089)"><path
             d="m 0,0 23.019,-9.78 c 1.466,-0.622 3.174,0.067 3.796,1.533 v 0 c 0.623,1.465 -0.067,3.173 -1.532,3.796 L 2.264,5.329 C 0.798,5.951 -0.91,5.262 -1.532,3.796 -2.155,2.331 -1.465,0.623 0,0"
             style="fill:#ffffff;fill-opacity:1;fill-rule:nonzero;stroke:none"
             id="path70" /></g></g></g></g></svg>
