<?xml version="1.0" encoding="UTF-8"?>
<svg width="186px" height="32px" viewBox="0 0 186 32" version="1.1" xmlns="http://www.w3.org/2000/svg" xmlns:xlink="http://www.w3.org/1999/xlink">
    <title>编组 29</title>
    <g id="集群" stroke="none" stroke-width="1" fill="none" fill-rule="evenodd">
        <g id="集群详情-备份" transform="translate(-18.000000, -13.000000)">
            <g id="编组-29" transform="translate(18.000000, 13.000000)">
                <g id="logo-深色">
                    <g id="logo" transform="translate(24.818182, 16.000000) scale(-1, 1) rotate(-180.000000) translate(-24.818182, -16.000000) translate(3.000000, 1.000000)" fill-rule="nonzero">
                        <path d="M38.5227273,18.2727273 C38.5227273,18.2045455 36.375,14.1136364 33.7840909,9.17045455 L29.0113636,0.170454545 L27.4772727,0.0681818182 C26.625,6.47398801e-15 25.9090909,0.0340909091 25.9090909,0.136363636 C25.9090909,0.238636364 27.75,3.78409091 30,8.01136364 C32.25,12.2386364 34.3977273,16.2954545 34.7727273,17.0454545 C35.4204545,18.3409091 35.5568182,18.4090909 36.9886364,18.4090909 C37.8409091,18.4090909 38.5227273,18.3409091 38.5227273,18.2727273 Z" id="路径" fill="#03ABF8"></path>
                        <path d="M40.5,14.4204545 L41.1477273,13.125 L37.5340909,6.57954545 L33.9204545,0.0340909091 L32.2840909,-1.29189584e-15 L30.6477273,-1.29189584e-15 L31.9431818,2.31818182 C32.6590909,3.57954545 34.6022727,7.125 36.3068182,10.1590909 C37.9772727,13.1931818 39.4772727,15.6818182 39.6136364,15.6818182 C39.75,15.6818182 40.1590909,15.1022727 40.5,14.4204545 Z" id="路径" fill="#03A9F4"></path>
                        <path d="M41.1818182,4.39772727 L38.7272727,-1.29189584e-15 L37.2613636,-1.29189584e-15 C36.4431818,-1.29189584e-15 35.7954545,0.0681818182 35.7954545,0.170454545 C35.7954545,0.272727273 37.1931818,2.89772727 38.8977273,6 L42.0340909,11.625 L42.8181818,10.2272727 L43.6363636,8.79545455 L41.1818182,4.39772727 Z" id="路径" fill="#03AAF6"></path>
                        <g id="编组-27" transform="translate(0.000000, 1.022727)" fill="#36455F">
                            <path d="M24.2045455,1.61486957e-16 L25.0227273,1.63636364 C25.4425837,2.47607656 27.3922815,6.03890708 29.4514838,9.74505958 L29.7954545,10.3636364 C31.9772727,14.2840909 33.75,17.625 33.75,17.7954545 C33.75,17.9659091 32.4204545,20.5568182 30.7840909,23.5227273 L30.7840909,23.5227273 L27.7840909,28.9772727 L15.1704545,28.9772727 L12.1704545,23.5227273 L9.17045455,18.0681818 L4.90909091,18.0681818 L2.45454545,13.6704545 C1.09090909,11.25 1.52020035e-22,9.17045455 1.52020035e-22,9.06818182 C1.52020035e-22,8.79545455 3.23863636,2.96590909 4.29545455,1.29545455 L4.29545455,1.29545455 L5.11363636,1.61486957e-16 L24.2045455,1.61486957e-16 Z M22.4318182,3.06818182 L6.54545455,3.06818182 L4.90909091,6.06818182 L3.30681818,9.03409091 L4.875,11.9318182 L6.44318182,14.8295455 L8.65909091,14.9318182 L10.875,15.0340909 L13.8409091,20.4545455 L16.8409091,25.9090909 L26.1136364,25.9090909 L28.2272727,22.0568182 C29.3863636,19.9090909 30.3409091,18 30.3409091,17.7954545 C30.3409091,17.5909091 28.5681818,14.2159091 26.3863636,10.2613636 L26.3863636,10.2613636 L22.4318182,3.06818182 Z" id="形状结合"></path>
                        </g>
                    </g>
                    <rect id="矩形" x="0" y="0" width="50" height="32"></rect>
                </g>
                <text id="Animbus-CaaS" font-family="PingFangSC-Semibold, PingFang SC" font-size="18" font-weight="500" fill="#000000" fill-opacity="0.85">
                    <tspan x="60" y="26">Animbus CaaS</tspan>
                </text>
            </g>
        </g>
    </g>
</svg>