<?xml version="1.0" encoding="utf-8"?>
<!-- Generator: Adobe Illustrator 19.0.0, SVG Export Plug-In . SVG Version: 6.00 Build 0)  -->
<svg version="1.1" id="图层_1" xmlns="http://www.w3.org/2000/svg" xmlns:xlink="http://www.w3.org/1999/xlink" x="0px" y="0px"
	 viewBox="0 0 595.3 841.9" style="enable-background:new 0 0 595.3 841.9;" xml:space="preserve">
<style type="text/css">
	.st0{fill:#015DA1;}
</style>
<g id="XMLID_1_">
	<polygon id="XMLID_2_" class="st0" points="17.4,91.5 21.5,94.3 16.3,97.1 13.2,118.1 21.4,118.1 26.2,85.6 18,85.6 	"/>
	<path id="XMLID_22_" class="st0" d="M46.8,93c-5.1-0.3-8.7,2.6-8.7,2.6l0.3-2H31l-3.8,24.5h7.3l2.8-18.2c0,0,3.6-2.7,5.5-2.6
		c1.9,0.1,2.2,1.5,2.2,1.5l-2.8,19.3h7.3l3-20C52.5,98.1,51.9,93.2,46.8,93z"/>
	<path id="XMLID_26_" class="st0" d="M79.5,88c5.8-0.5,9.8,7.2,9.8,7.2l3.3-2.5c0,0-0.7-3.7-5.3-6.5C82.6,83.3,76,84.1,76,84.1
		s-4,0.2-10.8,4.3c-6.8,4.1-8,13.9-8,13.9s-0.4,6.9,4.1,11.4c4.5,4.5,9.7,4.5,12.2,4.5c2.5,0,5.1-0.2,9.9-2.9s6.7-6.1,6.7-6.1
		l-2.9-2.4c0,0-4.5,5.8-8.8,6.8c-4.9,0.7-8-0.8-8.8-1.4c-0.8-0.6-3-3-3.4-8s2.7-10.1,2.7-10.1S72.7,87.9,79.5,88z"/>
	<polygon id="XMLID_28_" class="st0" points="93.6,118.1 101.2,118.1 107.1,81.6 98.8,83.7 	"/>
	<path id="XMLID_48_" class="st0" d="M128.4,93.7c-2.6-1.2-5-1.1-6-1c-6.7,0.5-15,6.1-15.3,13.7c0,0.5-0.2,5.8,3.8,9.2
		c2.7,2.3,5.9,2.5,7.4,2.5c4.7,0.2,8.2-2,9.3-2.8c1-0.7,4.4-3,6.1-7.6c0.5-1.5,1.4-3.7,0.8-6.6C133.4,96.1,128.9,93.9,128.4,93.7z
		 M126.4,104.5c-0.2,3.9-0.4,5.5-2.2,8.2c-1.8,2.4-2.1,2.4-4.2,2.7c-2.2,0.2-3.3-1.8-3.3-1.8s-1.4-1.8-1.4-6s1.7-7.7,1.7-7.7
		s1.4-3.9,4.6-3.9s3.9,2.3,3.9,2.3S126.6,100.5,126.4,104.5z"/>
	<path id="XMLID_49_" class="st0" d="M152.9,110.9c0,0-1.8,2.5-4.5,2.9c-2.4,0.2-3-2.3-3-2.3l2.8-18.6h-7.6l-2.9,20
		c0,0,1.9,5.6,7.3,5.3s7-2.8,7-2.8l-0.4,2.3h7.5l4-24.9h-7.7L152.9,110.9z"/>
	<path id="XMLID_54_" class="st0" d="M189.7,70.5c-0.7-0.4-1.4-0.7-2.1-1c0.5-3.9-1.3-8.4-1.3-8.4c-1-2.7-2.3-6-5.3-9.7
		c-6.6-8.1-15.5-10.5-18.3-11.3c-2-0.5-9.4-2.2-18.5,0c-2.4,0.6-6.6,1.6-11.3,4.8c-1.8,1.2-5.5,4-8.6,8.6c-1.5-0.4-3.2-0.7-4.9-0.8
		c-5.4-0.4-9.5,0.9-10.8,1.4C106,55,98,57.9,94.5,66.1c-4,9.4,1.1,18.2,1.8,19.3c-0.5-2-2-9.8,2.4-17.3c3-5.1,7.3-7.4,9.3-8.6
		c7.3-4,14.3-3.3,16.8-3.1c6.9,0.7,11,3.6,11.2,3.2c0.2-0.4-3.5-3.5-9.2-5.5c2.4-2.7,7.7-6.6,12.9-8.9c7.9-3.6,16.5-0.6,19.5,0.4
		c2.5,0.9,6.8,2.4,10.8,6.4c4.2,4.2,7.7,10.8,7.3,14.9c-0.6,0-1.1-0.1-1.5-0.1c-1.8,0-8.6,0.1-15.6,4.3c-4.3,2.6-7.8,6.1-7.4,6.7
		c0.6,0.8,8.2-6.6,18.9-6.4c5.3,0.1,9.7,2,10.8,2.5c3.8,1.7,6.2,3.8,7,4.5c0.9,0.8,2.1,1.9,3.2,3.3l-7,1.3l-1.5,10.2
		c-0.2-0.1-0.5-0.1-0.9-0.2c-2.1-0.5-3.7-0.4-4.2-0.4c-2.8,0.2-4.8,1.3-5.9,2c-3.1,1.8-4.8,4-5.3,4.8c-0.9,1.3-2.6,3.7-2.8,7.2
		c-0.1,1.3-0.3,4.3,1.6,7.2c0.4,0.6,2,2.9,5,3.9c2.9,0.9,5.3,0.1,6.6-0.3c0.9-0.3,1.8-0.6,2.6-1.3l-0.2,1.3h7.3l0.6-4.7
		c0.1-0.1,0.2-0.1,0.3-0.2c4.1-2.4,6.6-3.9,9-6.7c3.4-3.9,4.6-7.9,4.8-8.7c2.4-8.1-0.9-14.9-1.3-15.9
		C198.1,75,192.9,72.2,189.7,70.5z M196.5,96c0,0-1,7.5-7.3,12.9c-3.5,3-7.2,4.8-7.2,4.8c-0.2,0.1-0.3,0.2-0.5,0.2
		c-0.4,0.1-0.8,0.2-1.2,0.3c-1.2,0.3-2.9,0.6-4.5-0.3c-1.2-0.7-1.7-1.7-2-2.3c-0.6-1.2-0.7-2.2-0.8-3.7c-0.1-1-0.2-2.5,0.2-4.4
		c0.2-1.1,0.7-2.7,1.7-4.3c0.8-1.3,1.6-2.6,3.2-3.5c0.6-0.3,1.5-0.7,2.5-0.5c1.1,0.3,1.7,1.3,2,1.8c0.3,0.6,0.6,1.2,0.7,1.9
		l-2.1,13.7l0.2-0.1c0,0,1.3-0.5,4.1-2.2c2.8-1.7,3.6-2.5,3.6-2.5l4.1-25l0.1-0.6c0.4,0.6,0.8,1.2,1.2,2
		C197.2,89.4,196.7,94.5,196.5,96z"/>
	<path id="XMLID_55_" class="st0" d="M208.7,117h4.9c1.7-4.3,2.7-9.6,3-15.7h-4.1C212,107.1,210.7,112.3,208.7,117z"/>
	<path id="XMLID_58_" class="st0" d="M224,102h12.9c3.7,0.1,5.4-1.7,5.3-5.3V84.6h-8.8v-2.8h-5.3v2.8h-8.6v33.1
		c4.3-1.1,8.1-2.6,11.3-4.4V110c-2.4,1-4.7,1.9-6.7,2.5V102z M224,87.9h13.6v3.9H224V87.9z M224,94.9h13.6v1.6
		c0,1.6-0.8,2.3-2.4,2.3H224V94.9z"/>
	<path id="XMLID_60_" class="st0" d="M209.8,91.9c1.3,2.9,2,5.4,2.4,7.5h4.4c-0.5-2.6-1.4-5.1-2.5-7.5H209.8z"/>
	<path id="XMLID_61_" class="st0" d="M216.2,90.2c-0.4-2.2-1.3-4.7-2.5-7.6h-4.2c1,2.6,1.8,5.1,2.4,7.6H216.2z"/>
	<path id="XMLID_62_" class="st0" d="M243.9,103.1h-4.4c-0.9,2.3-2.5,4-4.5,5.3c-1.3-1.8-2.2-3.5-2.8-5.3h-4.7
		c2.3,7.3,8,12,17.1,14.3v-3.1c-3.2-1.1-5.8-2.4-7.5-3.9C240.4,109,242.7,106.5,243.9,103.1z"/>
	<path id="XMLID_63_" class="st0" d="M255.2,90.2c-0.6-2.9-1.4-5.4-2.4-7.6h-3.6c0.9,2.6,1.6,5.1,2,7.6H255.2z"/>
	<path id="XMLID_66_" class="st0" d="M270.9,108.3h-5.3v-3h0.3c2.9,0.1,4.3-1.3,4.2-4.4V90.5h-4.5v-3h5.3v-3.1h-5.3v-2.6h-4.1v2.6
		h-5.3v3.1h5.3v3H257v14.8h4.5v3h-5.8v3.1h5.8v6.2h4.1v-6.2h5.3V108.3z M260.6,93.5h6v3h-6V93.5z M264.8,102.4h-4.2v-3.1h6v1.2
		C266.6,101.8,266.1,102.5,264.8,102.4z"/>
	<path id="XMLID_70_" class="st0" d="M272.3,104.7c0.1,4.2-0.8,7.5-2.7,9.6v3.6c4.5-2.9,6.6-7.1,6.4-12.7h3.8v7.5
		c0.1,1-0.5,1.5-1.7,1.4h-1.3v3.1h2.5c3,0.1,4.5-1.3,4.4-4.2V83.4h-11.4V104.7z M276.1,86.5h3.8v6.2h-3.8V86.5z M276.1,95.8h3.8v6.2
		h-3.8V95.8z"/>
	<path id="XMLID_72_" class="st0" d="M248.3,117h4.4c1.5-4.6,2.4-9.7,2.7-15.5h-3.4C251.3,107.6,250.1,112.8,248.3,117z"/>
	<path id="XMLID_73_" class="st0" d="M249.6,91.8c0.9,2.9,1.6,5.4,2,7.6h3.9c-0.6-2.8-1.4-5.3-2.4-7.6H249.6z"/>
	<rect id="XMLID_74_" x="292.3" y="83.9" class="st0" width="29.5" height="3.6"/>
	<path id="XMLID_75_" class="st0" d="M289,98.3h10.8c-1.7,4.5-4.4,8.7-8.2,12.7v3.7h3c7.2,0,15-0.4,23.2-1.2c0.2,0.8,0.4,1.5,0.6,2
		c0.1,0.3,0.2,0.6,0.2,0.8h4.9c-1.3-4.5-3-8.4-5.2-12h-4.4c1,2,1.9,3.9,2.7,5.7c-5.3,0.6-11.9,0.9-19.8,0.9c3.9-3.4,7-7.7,9.3-12.7
		h19v-3.4H289V98.3z"/>
	<path id="XMLID_76_" class="st0" d="M336.5,90.2c-0.6-3.1-1.5-5.6-2.7-7.6h-4.2c0.9,1.9,1.8,4.4,2.7,7.6H336.5z"/>
	<path id="XMLID_77_" class="st0" d="M364.7,87.6v-3h-17.3c0.4-0.8,0.7-1.4,0.9-1.9c0.1-0.4,0.2-0.7,0.3-0.9h-5
		c-0.8,3-2.8,5.2-6,6.5v2.5c3.2-0.6,5.7-1.7,7.4-3.3H364.7z"/>
	<path id="XMLID_80_" class="st0" d="M365.6,103.1V100h-3v-9.5h-22.6v9.5h-2.4v3.1h2.4v4.5c-0.1,3.2,1.6,4.8,5.2,4.7h12.9v0.3
		c0.1,1.2-0.6,1.9-2.2,1.9h-3.5v3h5c3.4,0,5.2-1.6,5.2-4.8v-0.3h2.2v-3.1h-2.2v-6.1H365.6z M358.1,109.2h-3.6
		c-0.2-1.3-0.7-3.1-1.6-5.1h-4.1c0.7,2.1,1.2,3.8,1.4,5.1h-3.1c-1.8,0.1-2.6-0.7-2.5-2.5v-3.6h13.5V109.2z M358.1,100h-3.8
		c-0.2-1.6-0.7-3.3-1.6-5.1h-4.1c0.7,2.2,1.1,3.9,1.3,5.1h-5.3v-6.4h13.5V100z"/>
	<path id="XMLID_82_" class="st0" d="M328.9,117h4.7c1.9-4.3,3-9.6,3.3-15.7h-4.1C332.3,107,331,112.2,328.9,117z"/>
	<path id="XMLID_83_" class="st0" d="M330,91.9c1.1,2.8,2,5.3,2.5,7.6h4.4c-0.5-2.8-1.5-5.3-2.8-7.6H330z"/>
</g>
</svg>
