<?xml version="1.0" encoding="UTF-8"?>
<svg width="243px" height="59px" viewBox="0 0 243 59" version="1.1" xmlns="http://www.w3.org/2000/svg" xmlns:xlink="http://www.w3.org/1999/xlink">
    <!-- Generator: Sketch 54.1 (76490) - https://sketchapp.com -->
    <title>gravity-logo</title>
    <desc>Created with Sketch.</desc>
    <defs>
        <linearGradient x1="0%" y1="47.1375683%" x2="100%" y2="52.5707427%" id="linearGradient-1">
            <stop stop-color="#354AA4" offset="0%"></stop>
            <stop stop-color="#651F9B" offset="53.1077139%"></stop>
            <stop stop-color="#8E24AA" offset="100%"></stop>
        </linearGradient>
    </defs>
    <g id="Website" stroke="none" stroke-width="1" fill="none" fill-rule="evenodd">
        <g id="Homepage-Copy" transform="translate(-947.000000, -608.000000)" fill="url(#linearGradient-1)" fill-rule="nonzero">
            <g id="gravity-logo" transform="translate(947.000000, 608.000000)">
                <path d="M89.1919447,23.2800385 C86.3837099,23.2800385 84.354855,24.0579986 83.1053194,25.6139423 C81.8557837,27.169886 81.2310252,29.298025 81.2310252,31.9984231 C81.2310252,33.310045 81.3856046,34.4994883 81.6947681,35.5667885 C82.0039316,36.6340887 82.4676698,37.5534961 83.0859967,38.3250385 C83.7043237,39.0965808 84.4772207,39.6945171 85.4047111,40.1188654 C86.3322015,40.5432137 87.4142574,40.7553846 88.6509113,40.7553846 C89.3207655,40.7553846 89.8939975,40.7425258 90.3706245,40.7168077 C90.8472515,40.6910896 91.2659041,40.6396542 91.6265948,40.5625 L91.6265948,31.2654615 L97.6552522,31.2654615 L97.6552522,44.4973462 C96.9338708,44.780245 95.7745252,45.0824279 94.1771806,45.4039038 C92.5798361,45.7253798 90.6089485,45.8861154 88.2644589,45.8861154 C86.2548964,45.8861154 84.4321475,45.5775031 82.7961574,44.9602692 C81.1601674,44.3430354 79.7625119,43.4429162 78.6031489,42.2598846 C77.4437859,41.0768531 76.5485135,39.6238035 75.9173047,37.9006923 C75.286096,36.1775811 74.9704963,34.2101777 74.9704963,31.9984231 C74.9704963,29.7609504 75.3183,27.7806881 76.0139178,26.0575769 C76.7095356,24.3344657 77.6627753,22.8749867 78.8736656,21.6790962 C80.0845558,20.4832056 81.5079746,19.5766569 83.1439646,18.9594231 C84.7799546,18.3421892 86.5254138,18.0335769 88.3803946,18.0335769 C89.6428121,18.0335769 90.7828353,18.1171594 91.8004984,18.2843269 C92.8181614,18.4514944 93.6941115,18.6443771 94.4283747,18.8629808 C95.1626379,19.0815844 95.768074,19.3066142 96.244701,19.5380769 C96.721328,19.7695396 97.0626909,19.9495635 97.2687998,20.0781538 L95.529764,24.9002692 C94.7053281,24.4630619 93.7585292,24.083726 92.6893389,23.76225 C91.6201486,23.440774 90.4543622,23.2800385 89.1919447,23.2800385 Z M111.103796,18.3421923 C115.122921,18.3421923 118.201627,19.0558582 120.340008,20.4832115 C122.478389,21.9105648 123.547563,24.1287157 123.547563,27.1377308 C123.547563,29.0151504 123.116029,30.5389236 122.252948,31.7090962 C121.389866,32.8792687 120.14679,33.7986761 118.523682,34.4673462 C119.064718,35.1360162 119.631509,35.9011175 120.224072,36.7626731 C120.816636,37.6242287 121.402749,38.5243479 121.982431,39.4630577 C122.562112,40.4017675 123.122463,41.3790398 123.663499,42.3949038 C124.204535,43.4107679 124.706918,44.4073284 125.170663,45.3846154 L118.407746,45.3846154 C117.918237,44.5102008 117.422295,43.6229404 116.919904,42.7228077 C116.417514,41.822675 115.902249,40.9482735 115.374095,40.0995769 C114.845941,39.2508804 114.324235,38.4472025 113.808963,37.6885192 C113.29369,36.929836 112.778425,36.2418877 112.263153,35.6246538 L109.287469,35.6246538 L109.287469,45.3846154 L103.258812,45.3846154 L103.258812,19.0365769 C104.572757,18.7793961 105.931767,18.5993723 107.335885,18.4965 C108.740002,18.3936277 109.99596,18.3421923 111.103796,18.3421923 Z M111.451603,23.4729231 C111.013621,23.4729231 110.620732,23.4857819 110.272923,23.5115 C109.925114,23.5372181 109.596633,23.5629358 109.287469,23.5886538 L109.287469,30.8411154 L110.98786,30.8411154 C113.255059,30.8411154 114.878143,30.5582208 115.85716,29.9924231 C116.836178,29.4266254 117.325679,28.4622119 117.325679,27.0991538 C117.325679,25.7875319 116.829737,24.8552656 115.837838,24.3023269 C114.845938,23.7493883 113.383875,23.4729231 111.451603,23.4729231 Z M146.966579,45.3846154 C146.683179,44.4587646 146.367579,43.50721 146.01977,42.5299231 C145.671961,41.5526361 145.330598,40.5753639 144.995671,39.5980769 L134.561456,39.5980769 C134.226529,40.5753639 133.885167,41.5526361 133.537358,42.5299231 C133.189549,43.50721 132.873949,44.4587646 132.590549,45.3846154 L126.33002,45.3846154 C127.334802,42.5041907 128.288041,39.8424097 129.189768,37.3991923 C130.091495,34.955975 130.973886,32.6542416 131.836967,30.4939231 C132.700048,28.3336046 133.550235,26.2826187 134.387553,24.3409038 C135.224871,22.399189 136.09438,20.5025093 136.996107,18.6508077 L142.754247,18.6508077 C143.630211,20.5025093 144.493279,22.399189 145.343478,24.3409038 C146.193678,26.2826187 147.050306,28.3336046 147.913387,30.4939231 C148.776468,32.6542416 149.658859,34.955975 150.560586,37.3991923 C151.462313,39.8424097 152.415552,42.5041907 153.420334,45.3846154 L146.966579,45.3846154 Z M139.739919,24.7073846 C139.611101,25.0931558 139.417876,25.6203685 139.16024,26.2890385 C138.902604,26.9577085 138.606327,27.7292392 138.2714,28.6036538 C137.936472,29.4780685 137.569346,30.4424819 137.17001,31.4969231 C136.770674,32.5513642 136.364903,33.657225 135.952685,34.8145385 L143.565797,34.8145385 C143.153579,33.657225 142.754249,32.5513642 142.367795,31.4969231 C141.981341,30.4424819 141.614215,29.4780685 141.266406,28.6036538 C140.918597,27.7292392 140.615879,26.9577085 140.358242,26.2890385 C140.100606,25.6203685 139.8945,25.0931558 139.739919,24.7073846 Z M164.859325,45.3846154 C163.803016,43.1471427 162.759605,40.8196916 161.72906,38.4021923 C160.698515,35.984693 159.719512,33.5929477 158.792022,31.2268846 C157.864532,28.8608215 157.007904,26.5976646 156.222114,24.4373462 C155.436323,22.2770277 154.760038,20.3482008 154.193238,18.6508077 L160.84022,18.6508077 C161.355492,20.1938923 161.915843,21.8591129 162.521288,23.6465192 C163.126733,25.4339256 163.74505,27.2148757 164.376259,28.9894231 C165.007468,30.7639704 165.619345,32.4613381 166.211908,34.0815769 C166.804471,35.7018158 167.358381,37.10343 167.873653,38.2864615 C168.363162,37.10343 168.910631,35.7018158 169.516076,34.0815769 C170.121521,32.4613381 170.739839,30.7639704 171.371048,28.9894231 C172.002256,27.2148757 172.620574,25.4339256 173.226019,23.6465192 C173.831464,21.8591129 174.391815,20.1938923 174.907087,18.6508077 L181.322197,18.6508077 C180.729634,20.3482008 180.046908,22.2770277 179.273999,24.4373462 C178.501091,26.5976646 177.650904,28.8608215 176.723413,31.2268846 C175.795923,33.5929477 174.81692,35.984693 173.786375,38.4021923 C172.75583,40.8196916 171.712419,43.1471427 170.656111,45.3846154 L164.859325,45.3846154 Z M184.800269,18.6508077 L190.828926,18.6508077 L190.828926,45.3846154 L184.800269,45.3846154 L184.800269,18.6508077 Z M216.875818,18.6508077 L216.875818,23.7815385 L208.798963,23.7815385 L208.798963,45.3846154 L202.770305,45.3846154 L202.770305,23.7815385 L194.69345,23.7815385 L194.69345,18.6508077 L216.875818,18.6508077 Z M230.556233,29.6452308 C231.638305,27.8192473 232.668834,25.9932912 233.647852,24.1673077 C234.62687,22.3413242 235.528583,20.5025093 236.353019,18.6508077 L243,18.6508077 C241.531474,21.5312324 240.011443,24.3216019 238.439862,27.022 C236.868281,29.7223981 235.206552,32.4356146 233.454626,35.1617308 L233.454626,45.3846154 L227.425968,45.3846154 L227.425968,35.2388846 C225.674042,32.5127684 224.005872,29.7866931 222.42141,27.0605769 C220.836947,24.3344607 219.310475,21.5312324 217.841949,18.6508077 L224.836737,18.6508077 C225.661173,20.5025093 226.550005,22.3413242 227.503259,24.1673077 C228.456513,25.9932912 229.474161,27.8192473 230.556233,29.6452308 Z M54.1315315,37.8307791 C54.5252902,38.1188101 54.666503,38.6659429 54.470033,39.1267083 C53.3448321,42.6694462 51.4050987,46.0394494 49.014712,48.8329712 C48.6778476,49.2362986 48.19977,49.3796852 47.749526,49.1784407 L40.8043066,46.701459 C39.0888766,48.1420327 37.1487337,49.2937369 35.0681969,50.1289007 L33.69045,57.5024072 C33.6061315,57.9631726 33.2123724,58.3954286 32.7338858,58.4528672 C30.9349562,58.7987555 29.1347984,59 27.2793835,59 C25.42315,59 23.6238109,58.7983362 21.8244718,58.4528672 C21.3459851,58.3954286 20.9526356,57.9631726 20.8683171,57.5024072 L19.4905702,50.1289007 C17.4100332,49.2937369 15.4134054,48.1420327 13.7544606,46.701459 L6.80924098,49.1784407 C6.3594062,49.3801041 5.88132884,49.2362986 5.54364579,48.8329712 C3.15366832,46.0394494 1.21352565,42.6694462 0.0887340696,39.1267083 C-0.108145388,38.6659429 0.0326582159,38.1188101 0.42600782,37.8307791 L5.93658609,32.9350928 C5.73970662,31.8399887 5.68363078,30.6593556 5.68363078,29.507232 C5.68363078,28.3555278 5.74011593,27.1740562 5.93658609,26.0797906 L0.425598504,21.1832658 C0.0322489029,20.895235 -0.108554701,20.3485213 0.0883247569,19.8873366 C1.21311634,16.3450181 3.15325901,12.975015 5.54323647,10.1814929 C5.88091954,9.7781658 6.3589969,9.63436 6.80883165,9.83602354 L13.7540513,12.3125859 C15.4129961,10.8724316 17.4096239,9.72072734 19.4901609,8.88514434 L20.8679078,1.51205724 C20.9522262,1.0512917 21.3459851,0.619035773 21.8240625,0.561597303 C25.42315,-0.187199101 29.134389,-0.187199101 32.7334765,0.561597303 C33.2119634,0.619035773 33.6057221,1.0512917 33.6900409,1.51205724 L35.0673782,8.88472511 C37.147915,9.72030807 39.0884671,10.8720123 40.803488,12.3121666 L47.7487074,9.83560429 C48.1989514,9.6335215 48.6770289,9.77774658 49.0138934,10.1810736 C51.4042801,12.9745957 53.3440134,16.3445988 54.4692143,19.8869173 C54.666503,20.3481021 54.5252902,20.8948157 54.1315315,21.1828465 L48.6205437,26.0793713 C48.8174231,27.1740562 48.8734992,28.3551087 48.8734992,29.5068129 C48.8734992,30.6589365 48.8174231,31.8399887 48.6205437,32.9346737 L54.1315315,37.8307791 Z M27.3110067,48.5272997 C37.5842149,48.5272997 45.912181,40.0084228 45.912181,29.5 C45.912181,18.9915772 37.5842149,10.4727003 27.3110067,10.4727003 C17.0377986,10.4727003 8.7098325,18.9915772 8.7098325,29.5 C8.7098325,40.0084228 17.0377986,48.5272997 27.3110067,48.5272997 Z M37.2299535,29.1984723 L28.8948827,29.1984723 C28.7789366,29.1984723 28.6730022,29.2638862 28.6217811,29.3672076 C28.5707928,29.470298 28.583598,29.593729 28.6546091,29.6847999 L30.1945019,31.6610833 L30.1938033,31.6620078 C30.23641,31.7098546 30.2629519,31.7722637 30.2629519,31.8406823 C30.2629519,31.9095633 30.23641,31.97151 30.1938033,32.019357 L30.1942689,32.0202815 C30.1919408,32.0228239 30.1893796,32.0251355 30.1870514,32.027447 C30.1840248,32.030914 30.1809981,32.0339191 30.1779714,32.0369239 C29.4946353,32.7527777 28.5370333,33.169993 27.5344966,33.169993 C25.5277934,33.169993 23.8954699,31.5492094 23.8954699,29.556977 C23.8954699,27.5645135 25.5280262,25.9437299 27.5344966,25.9437299 C28.2175999,25.9437299 28.8851041,26.1348862 29.464601,26.4968581 C29.602898,26.583075 29.7847329,26.5458607 29.8769308,26.4124905 L33.2079327,21.6051521 C33.3029246,21.4678524 33.2680011,21.2803944 33.1301696,21.1856253 C31.4305603,20.0227385 29.438292,19.4078947 27.3691922,19.4078947 C21.7635077,19.4078947 17.2031995,23.9353174 17.2031995,29.5001155 C17.2031995,35.0649137 21.7635077,39.5921053 27.3691922,39.5921053 C32.974178,39.5921053 37.5342535,35.0646826 37.5342535,29.5001155 C37.5340206,29.3334605 37.3980521,29.1984723 37.2299535,29.1984723 Z M27.3110067,46.1266738 C18.3343541,46.1266738 11.0572248,38.6827231 11.0572248,29.5 C11.0572248,20.3172769 18.3343541,12.8733262 27.3110067,12.8733262 C36.2876593,12.8733262 43.5647886,20.3172769 43.5647886,29.5 C43.5647886,38.6827231 36.2876593,46.1266738 27.3110067,46.1266738 Z" id="GRAVITY"></path>
            </g>
        </g>
    </g>
</svg>