<?xml version="1.0" encoding="utf-8"?>
<!-- Generator: Adobe Illustrator 23.0.0, SVG Export Plug-In . SVG Version: 6.00 Build 0)  -->
<svg version="1.1" id="图层_1" xmlns="http://www.w3.org/2000/svg" xmlns:xlink="http://www.w3.org/1999/xlink" x="0px" y="0px"
	 viewBox="0 0 1000 166" style="enable-background:new 0 0 1000 166;" xml:space="preserve">
<style type="text/css">
	.st0{display:none;}
	.st1{fill:none;}
</style>
<g>
	<rect x="-0.1" y="-0.3" class="st0" width="1000" height="166"/>
	<g>
		<path class="st1" d="M528,118.4c0,11.9,15.7,10.2,20.5,10.2c10.9,0,20.5-11,20.5-15.4s0-7.7,0-15.4
			C546.4,97.9,528,102.5,528,118.4z"/>
		<ellipse class="st1" cx="743.1" cy="100.5" rx="20.5" ry="28.2"/>
		<path d="M845.6,57c-19.1,0-25.5,15.4-25.5,15.4V55.3h-20v89h20v-53c0-12.3,11.1-19,17.8-19c5.1,0,13.2,2.2,13.2,15.6
			c0,13.5,0,56.3,0,56.3h20V87.8C871.1,87.8,871.1,57,845.6,57z"/>
		<rect x="666.3" y="56.9" width="20.5" height="87.1"/>
		<path d="M630.5,36.5H610v20.5h-10.2v20.5H610c0,0,0,41,0,51.2c0,10.2,6.8,15.4,16.4,15.4s19.4,0,19.4,0s0-13.1,0-18.3
			c-12,0-15.4,0.4-15.4-7.3c0-7.9,0-41,0-41h15.4V56.9h-15.4V36.5z"/>
		<path d="M743.1,56.9c-22.6,0-41,19.5-41,43.5s18.3,43.5,41,43.5c22.6,0,41-19.5,41-43.5S765.7,56.9,743.1,56.9z M743.1,128.6
			c-11.3,0-20.5-12.6-20.5-28.2s9.2-28.2,20.5-28.2c11.3,0,20.5,12.6,20.5,28.2S754.4,128.6,743.1,128.6z"/>
		<rect x="666.3" y="31.3" width="20.5" height="20.5"/>
		<path d="M379.5,56.9c0-7.2,7.6-10.2,15.4-10.2c14,0,20.5,3.1,20.5,10.2c6.1,0,25.6,0,25.6,0s-3.9-30.7-46.1-30.7
			c-42.2,0-41,26.1-41,35.8c0,39.8,66.6,24.7,66.6,51.2c0,5.6-3,15.4-20.5,15.4c-16.5,0-25.6-9-25.6-15.4c-5.4,0-9.2,0-20.5,0
			c0,20.4,25.6,30.7,46.1,30.7c28.9,0,46.1-11.2,46.1-30.7C446.1,63.3,380,88.4,379.5,56.9z"/>
		<polygon points="190.1,21.1 179.8,56.9 190.6,82.1 160.5,85.5 128.6,144 210.6,144 225.9,113.3 179.8,113.3 205.4,56.9 246.4,144 
			287.4,144 220.8,21.1 		"/>
		<path d="M584.4,127.2V92.8c0-12.4,1.4-35.8-30.7-35.8c-32.2,0-41,25.6-41,25.6h20.5c0,0,6.1-10.2,20.5-10.2
			c9.3,0,15.4,3.3,15.4,15.4c-56.6-2.2-61.4,17.6-61.4,30.7c0,11.4,11.6,25.6,30.7,25.6c19.1,0,30.7-15.4,30.7-15.4v3.8
			c0,6.4,5.2,11.6,11.6,11.6h8.9v-13.6h-1.9C585.8,130.4,584.4,129,584.4,127.2z M569,113.3c0,4.4-9.6,15.4-20.5,15.4
			c-4.8,0-20.5,1.7-20.5-10.2c0-15.8,18.3-20.5,41-20.5C569,105.6,569,108.9,569,113.3z"/>
		<polygon points="159.3,82.6 179.8,56.9 144,46.7 		"/>
		<rect x="297.6" y="51.8" width="30.7" height="92.2"/>
		<path d="M482,36.5h-20.5v20.5h-10.2v20.5h10.2c0,0,0,38.1,0,48.2s4.1,18.3,13.8,18.3c9.7,0,22.1,0,22.1,0s0-13.5,0-18.7
			c-12,0-15.4,0.4-15.4-6.9c0-7.9,0-41,0-41h15.4V56.9H482V36.5z"/>
		<polygon points="328.3,46.7 328.3,21.1 297.6,21.1 		"/>
	</g>
</g>
</svg>
