<?xml version="1.0" encoding="utf-8"?>
<!-- Generator: Adobe Illustrator 19.2.1, SVG Export Plug-In . SVG Version: 6.00 Build 0)  -->
<svg version="1.1" id="layer" xmlns="http://www.w3.org/2000/svg" xmlns:xlink="http://www.w3.org/1999/xlink" x="0px" y="0px"
	 viewBox="0 0 652 652" style="enable-background:new 0 0 652 652;" xml:space="preserve">
<style type="text/css">
	.st0{fill-rule:evenodd;clip-rule:evenodd;fill:#3D85C6;}
	.st1{fill:#3D85C6;}
</style>
<polygon class="st0" points="260,339.4 260,314.2 249.9,314.2 249.9,303.7 284.4,303.7 284.4,314.2 274.6,314.2 274.6,339.4 "/>
<polygon class="st0" points="329,339.4 329,314.2 318.8,314.2 318.8,303.7 353.4,303.7 353.4,314.2 343.5,314.2 343.5,339.4 "/>
<polygon class="st0" points="281.1,339.4 294.2,303.8 309,303.8 322.9,339.4 308.9,339.4 301.7,317.9 294.5,339.4 "/>
<polygon class="st0" points="350,339.4 363.1,303.8 377.8,303.8 391.8,339.4 377.8,339.4 370.8,317.9 363.4,339.4 "/>
<g>
	<path class="st0" d="M303.4,283.8c-21.1-4.8-36.3-18.1-36.3-33.8c0-2,0.2-3.9,0.7-5.7c10.3-2.8,37.2-6.9,42.1-3.7
		C313.2,242.5,306.9,268.1,303.4,283.8"/>
	<path class="st0" d="M373.4,244.3c0.5,1.9,0.7,3.8,0.7,5.7c0,15.7-15.3,29-36.4,33.8c-3.5-15.6-9.8-41.3-6.5-43.2
		C336.1,237.4,363.2,241.5,373.4,244.3"/>
	<path class="st0" d="M320.6,214.3c23.1,0,42.8,9.8,50.3,23.5c-8.6-1.3-48.5-10.9-48-3v50.8c-0.8,0-1.5,0-2.3,0c-0.8,0-1.6,0-2.4,0
		v-50.8c0.4-7.9-39.2,1.6-47.9,3C277.8,224.2,297.5,214.3,320.6,214.3"/>
	<path class="st1" d="M211.8,427.5c-1.5,0.8-4.9,1.6-9.2,1.6c-11.3,0-18.1-7.1-18.1-17.9c0-11.7,8.1-18.8,19-18.8
		c4.3,0,7.3,0.9,8.6,1.6l-1.4,5.2c-1.7-0.7-4-1.4-7-1.4c-7.2,0-12.4,4.5-12.4,13.1c0,7.8,4.6,12.8,12.4,12.8c2.6,0,5.4-0.5,7.1-1.3
		L211.8,427.5z"/>
	<path class="st1" d="M247.5,410.4c0,11.9-7.2,18.7-17,18.7c-10,0-16.3-7.6-16.3-18.1c0-10.9,6.9-18.6,16.9-18.6
		C241.3,392.4,247.5,400.3,247.5,410.4 M220.9,411c0,7.2,3.6,13,9.9,13c6.3,0,9.8-5.9,9.8-13.3c0-6.7-3.3-13.1-9.8-13.1
		C224.4,397.6,220.9,403.6,220.9,411"/>
	<path class="st1" d="M283,414.1c-0.2-4.6-0.5-10.1-0.4-15h-0.2c-1.2,4.4-2.6,9.2-4.2,13.6l-5.2,15.4h-5l-4.7-15.2
		c-1.4-4.5-2.6-9.4-3.6-13.9h-0.1c-0.2,4.7-0.4,10.3-0.6,15.2l-0.8,14.3h-6.1l2.4-35.5h8.5l4.6,14.3c1.3,4.2,2.4,8.4,3.3,12.3h0.2
		c0.9-3.8,2.2-8.2,3.5-12.4l4.9-14.2h8.4l2.1,35.5h-6.3L283,414.1z"/>
	<path class="st1" d="M326.6,414.1c-0.2-4.6-0.5-10.1-0.4-15H326c-1.2,4.4-2.6,9.2-4.2,13.6l-5.2,15.4h-5l-4.7-15.2
		c-1.4-4.5-2.6-9.4-3.6-13.9h-0.1c-0.2,4.7-0.4,10.3-0.6,15.2l-0.8,14.3h-6.1l2.4-35.5h8.5l4.6,14.3c1.3,4.2,2.4,8.4,3.3,12.3h0.2
		c0.9-3.8,2.2-8.2,3.5-12.4l4.9-14.2h8.4l2.1,35.5h-6.3L326.6,414.1z"/>
	<path class="st1" d="M346.6,393v20.7c0,7,2.9,10.2,7.3,10.2c4.7,0,7.5-3.2,7.5-10.2V393h6.5v20.3c0,11-5.6,15.8-14.2,15.8
		c-8.2,0-13.5-4.6-13.5-15.8V393H346.6z"/>
	<path class="st1" d="M375.3,428.6V393h7.4l9.2,15.2c2.4,4,4.4,8.1,6.1,11.9h0.1c-0.4-4.7-0.6-9.3-0.6-14.8V393h6v35.5h-6.7
		l-9.3-15.7c-2.3-3.8-4.6-8.2-6.4-12.2l-0.2,0.1c0.3,4.6,0.3,9.3,0.3,15.1v12.7H375.3z"/>
	<rect x="410.9" y="393" class="st1" width="6.5" height="35.5"/>
	<path class="st1" d="M450.3,427.5c-1.5,0.8-4.9,1.6-9.2,1.6c-11.3,0-18.1-7.1-18.1-17.9c0-11.7,8.1-18.8,19-18.8
		c4.3,0,7.3,0.9,8.6,1.6l-1.4,5.2c-1.7-0.7-4-1.4-7-1.4c-7.2,0-12.4,4.5-12.4,13.1c0,7.8,4.6,12.8,12.4,12.8c2.6,0,5.4-0.5,7.1-1.3
		L450.3,427.5z"/>
	<path class="st1" d="M463.3,418.5l-3.1,10.1h-6.7L465,393h8.3l11.5,35.5h-7l-3.2-10.1H463.3z M473.5,413.6l-2.8-8.7
		c-0.7-2.2-1.3-4.6-1.8-6.6h-0.1c-0.5,2.1-1,4.5-1.7,6.6l-2.7,8.7H473.5z"/>
	<polygon class="st1" points="492.3,398.5 482.1,398.5 482.1,393 509,393 509,398.5 498.7,398.5 498.7,428.6 492.3,428.6 	"/>
	<rect x="513.1" y="393" class="st1" width="6.5" height="35.5"/>
	<path class="st1" d="M558.6,410.4c0,11.9-7.2,18.7-17,18.7c-10,0-16.3-7.6-16.3-18.1c0-10.9,6.8-18.6,16.9-18.6
		C552.4,392.4,558.6,400.3,558.6,410.4 M532,411c0,7.2,3.6,13,9.9,13c6.3,0,9.8-5.9,9.8-13.3c0-6.7-3.3-13.1-9.8-13.1
		C535.5,397.6,532,403.6,532,411"/>
	<path class="st1" d="M564.1,428.6V393h7.4l9.2,15.2c2.4,4,4.4,8.1,6.1,11.9h0.1c-0.4-4.7-0.6-9.3-0.6-14.8V393h6v35.5h-6.7
		l-9.3-15.7c-2.3-3.8-4.6-8.2-6.4-12.2l-0.2,0.1c0.3,4.6,0.3,9.3,0.3,15.1v12.7H564.1z"/>
	<path class="st1" d="M599.6,421.5c2.1,1.2,5.3,2.3,8.6,2.3c4.2,0,6.5-1.9,6.5-4.9c0-2.7-1.8-4.3-6.3-5.9c-5.9-2.1-9.6-5.2-9.6-10.3
		c0-5.8,4.8-10.2,12.5-10.2c3.8,0,6.7,0.8,8.5,1.8l-1.6,5.2c-1.3-0.7-3.7-1.7-7.1-1.7c-4.1,0-5.9,2.2-5.9,4.3c0,2.7,2.1,4,6.8,5.8
		c6.2,2.3,9.2,5.4,9.2,10.5c0,5.7-4.3,10.7-13.5,10.7c-3.7,0-7.6-1.1-9.6-2.3L599.6,421.5z"/>
	<polygon class="st0" points="31.4,428.4 31.4,403.3 21.3,403.3 21.3,392.8 55.8,392.8 55.8,403.3 45.9,403.3 45.9,428.4 	"/>
	<polygon class="st0" points="100.2,428.4 100.2,403.3 90.1,403.3 90.1,392.8 124.6,392.8 124.6,403.3 114.7,403.3 114.7,428.4 	"/>
	<polygon class="st0" points="52.5,428.5 65.5,392.8 80.4,392.8 94.2,428.5 80.2,428.5 73,406.9 65.8,428.5 	"/>
	<polygon class="st0" points="121.3,428.4 134.3,392.8 149,392.8 163,428.4 149,428.4 142,406.9 134.6,428.4 	"/>
</g>
</svg>
